<?xml version="1.0" encoding="UTF-8"?>
<svg width="364px" height="120px" viewBox="0 0 364 120" version="1.1" xmlns="http://www.w3.org/2000/svg" xmlns:xlink="http://www.w3.org/1999/xlink">
    <!-- Generator: Sketch 49.3 (51167) - http://www.bohemiancoding.com/sketch -->
    <title>5</title>
    <desc>Created with Sketch.</desc>
    <defs>
        <linearGradient x1="0%" y1="0%" x2="0%" y2="100%" id="linearGradient-1">
            <stop stop-color="#91FFAF" offset="0%"></stop>
            <stop stop-color="#00B6F1" offset="100%"></stop>
        </linearGradient>
    </defs>
    <g id="Page-1" stroke="none" stroke-width="1" fill="none" fill-rule="evenodd">
        <g id="5">
            <rect id="prk2" fill="url(#linearGradient-1)" fill-rule="nonzero" x="0" y="0" width="364" height="120"></rect>
            <g id="PRIORITY_LINE" transform="translate(207.522000, 43.000000)" fill="#FFFFFF">
                <path d="M14.5504922,8.71679688 C14.5504922,11.523126 13.8428984,13.6760179 12.4276895,15.1755371 C11.0124806,16.6750563 8.96798603,17.4248047 6.29414453,17.4248047 L5.06562891,17.4248047 L5.06562891,27 L0.151566406,27 L0.151566406,0.586914062 L6.85420312,0.586914062 C11.9850882,0.586914062 14.5504922,3.2968479 14.5504922,8.71679688 Z M5.06562891,13.1611328 L6.00508203,13.1611328 C7.20951514,13.1611328 8.10680434,12.8299187 8.69697656,12.1674805 C9.28714878,11.5050423 9.58223047,10.4210687 9.58223047,8.91552734 C9.58223047,7.53042927 9.31123708,6.50366545 8.76924219,5.83520508 C8.22724729,5.1667447 7.39017884,4.83251953 6.25801172,4.83251953 L5.06562891,4.83251953 L5.06562891,13.1611328 Z M22.7887734,16.7202148 L22.7887734,27 L17.8747109,27 L17.8747109,0.586914062 L24.3063516,0.586914062 C27.0283704,0.586914062 29.0367325,1.23127611 30.331498,2.52001953 C31.6262636,3.80876295 32.2736367,5.77798154 32.2736367,8.42773438 C32.2736367,11.7640141 31.1475087,14.0945572 28.8952187,15.4194336 L33.9718789,27 L28.7145547,27 L24.5412148,16.7202148 L22.7887734,16.7202148 Z M22.7887734,12.4926758 L24.0534219,12.4926758 C25.2096777,12.4926758 26.040724,12.1644727 26.5465859,11.5080566 C27.0524478,10.8516406 27.305375,9.87305338 27.305375,8.57226562 C27.305375,7.22330055 27.0373927,6.26277955 26.5014199,5.69067383 C25.9654472,5.1185681 25.1374119,4.83251953 24.0172891,4.83251953 L22.7887734,4.83251953 L22.7887734,12.4926758 Z M37.2599648,27 L37.2599648,0.586914062 L41.8849648,0.586914062 L41.8849648,27 L37.2599648,27 Z M65.6422891,13.7573242 C65.6422891,18.1294164 64.8232868,21.4897344 63.1852578,23.8383789 C61.5472288,26.1870235 59.2046415,27.3613281 56.1574258,27.3613281 C53.0981657,27.3613281 50.7495564,26.1900345 49.1115273,23.8474121 C47.4734983,21.5047897 46.6544961,18.1294166 46.6544961,13.7211914 C46.6544961,9.34909923 47.4734983,5.99781439 49.1115273,3.66723633 C50.7495564,1.33665827 53.1102098,0.171386719 56.1935586,0.171386719 C59.2407744,0.171386719 61.5773395,1.34268034 63.2033242,3.68530273 C64.8293089,6.02792512 65.6422891,9.38523205 65.6422891,13.7573242 Z M51.676957,13.7573242 C51.676957,16.768407 52.0563478,19.0628176 52.8151406,20.640625 C53.5739335,22.2184324 54.6880174,23.0073242 56.1574258,23.0073242 C59.1203312,23.0073242 60.6017617,19.9240217 60.6017617,13.7573242 C60.6017617,7.59062672 59.1323754,4.50732422 56.1935586,4.50732422 C54.7000615,4.50732422 53.5739335,5.29320503 52.8151406,6.86499023 C52.0563478,8.43677544 51.676957,10.7341971 51.676957,13.7573242 Z M74.4044961,16.7202148 L74.4044961,27 L69.4904336,27 L69.4904336,0.586914062 L75.9220742,0.586914062 C78.644093,0.586914062 80.6524551,1.23127611 81.9472207,2.52001953 C83.2419863,3.80876295 83.8893594,5.77798154 83.8893594,8.42773438 C83.8893594,11.7640141 82.7632313,14.0945572 80.5109414,15.4194336 L85.5876016,27 L80.3302773,27 L76.1569375,16.7202148 L74.4044961,16.7202148 Z M74.4044961,12.4926758 L75.6691445,12.4926758 C76.8254003,12.4926758 77.6564467,12.1644727 78.1623086,11.5080566 C78.6681705,10.8516406 78.9210977,9.87305338 78.9210977,8.57226562 C78.9210977,7.22330055 78.6531153,6.26277955 78.1171426,5.69067383 C77.5811698,5.1185681 76.7531345,4.83251953 75.6330117,4.83251953 L74.4044961,4.83251953 L74.4044961,12.4926758 Z M88.8756875,27 L88.8756875,0.586914062 L93.5006875,0.586914062 L93.5006875,27 L88.8756875,27 Z M107.195023,27 L102.299027,27 L102.299027,4.90478516 L97.2404336,4.90478516 L97.2404336,0.586914062 L112.253617,0.586914062 L112.253617,4.90478516 L107.195023,4.90478516 L107.195023,27 Z M121.431352,11.0112305 L124.954301,0.586914062 L130.103227,0.586914062 L123.834184,16.4130859 L123.834184,27 L118.992387,27 L118.992387,16.6118164 L112.74141,0.586914062 L117.926469,0.586914062 L121.431352,11.0112305 Z" id="PRIORITY"></path>
                <path d="M70.5175664,57 L70.5175664,30.5869141 L75.4316289,30.5869141 L75.4316289,52.7001953 L82.2426641,52.7001953 L82.2426641,57 L70.5175664,57 Z M86.2714727,57 L86.2714727,30.5869141 L90.8964727,30.5869141 L90.8964727,57 L86.2714727,57 Z M114.978992,57 L108.980945,57 L100.81493,37.8676758 L100.580066,37.8676758 C100.881175,39.3250398 101.031727,40.8907794 101.031727,42.5649414 L101.031727,57 L96.4789922,57 L96.4789922,30.5869141 L102.513172,30.5869141 L110.606922,49.5205078 L110.805652,49.5205078 C110.57681,48.2558531 110.462391,46.7503343 110.462391,45.0039062 L110.462391,30.5869141 L114.978992,30.5869141 L114.978992,57 Z M131.545887,57 L119.640125,57 L119.640125,30.5869141 L131.545887,30.5869141 L131.545887,34.8325195 L124.554188,34.8325195 L124.554188,41.1196289 L131.040027,41.1196289 L131.040027,45.3833008 L124.554188,45.3833008 L124.554188,52.7001953 L131.545887,52.7001953 L131.545887,57 Z" id="LINE"></path>
            </g>
            <g id="Group_393" transform="translate(2.240000, 33.749000)" fill="#FFFFFF" fill-rule="nonzero">
                <path d="M100.235,19.002 L97.016,21.602 L93.116,36.802 L93.732,43.171 L96.677,56.936 L99.827,74.536 L110.784,74.536 L110.784,62.899 L111.811,27.425 L110.097,19.067 L100.235,19.002 Z M105.371,1.267 C103.589788,1.20395264 101.857204,1.85513217 100.558454,3.07576266 C99.2597028,4.29639316 98.5024304,5.98530336 98.455,7.767 C98.4346978,9.55301436 99.1352262,11.2718048 100.398211,12.5347893 C101.661195,13.7977738 103.379986,14.4983022 105.166,14.478 C108.719246,14.3990587 111.574222,11.5248994 111.629366,7.97120392 C111.68451,4.41750849 108.920086,1.45615085 105.371,1.267 Z M51.407,2.429 C47.6897349,2.35543407 44.6054252,5.28679919 44.49,9.003 C44.4723269,12.7096591 47.4628409,15.7288269 51.1695,15.7465 C54.8761591,15.7641731 57.8953269,12.7736591 57.913,9.067 C57.8744937,5.46800625 55.0044946,2.53977783 51.407,2.429 Z M56.607,36.191 C56.607,33.726 55.307,21.125 55.307,19.07 L42.299,19.07 L37.848,36.191 L39.148,48.591 L40.312,54.001 L41.202,66.601 L41.202,74.267 L56.681,74.267 L56.681,36.191 L56.607,36.191 Z" id="Path_531" opacity="0.502"></path>
                <path d="M84.073,19.755 C84.073,19.755 86.881,21.399 86.812,23.179 C85.853,44.479 100.029,86.179 100.029,86.179 L90.442,86.179 L79.28,64.68 L77.841,86.251 L67.432,86.251 L67.158,63.857 L76.54,53.311 L77.499,33.657 L73.325,31.397 C73.325,31.397 67.572,40.368 70.38,46.052 C70.928,47.152 73.873,54.612 67.435,55.434 C65.381,50.709 61.135,41.053 61.135,41.053 L61.34,38.245 L67.503,23.453 L70.037,21.33 L84.073,19.755 Z M68.939,8.729 C69.1812357,13.0849388 72.7943771,16.4870424 77.157,16.467 C81.3677041,16.2149056 84.6617383,12.7411491 84.69,8.523 C84.6381653,4.15746451 81.111542,0.631285151 76.746,0.58 C72.4000357,0.808486249 68.9810597,4.37723684 68.939,8.729 Z M0.525,86.18 L56.68,86.18 L56.68,80.019 L10.866,80.019 L0.525,86.18 Z M12.783,73.856 L56.683,73.856 L56.683,67.692 L20.864,67.692 L12.783,73.856 Z M23.74,61.529 L56.68,61.529 L56.68,55.365 L29.835,55.365 L23.74,61.529 Z M130.915,86.114 L130.915,65.569 C133.654,65.432 135.64,67.076 135.709,69.678 C135.777,73.787 135.777,77.827 135.709,81.936 C135.64,84.607 133.725,86.251 130.915,86.114 Z M107.083,86.182 C104.344,85.977 102.7,84.538 102.632,81.936 C102.495,77.896 102.495,73.855 102.632,69.883 C102.7,67.349 104.344,65.843 107.083,65.637 L107.083,86.182 Z M126.532,65.295 C126.053,60.638 124.204,58.926 119.889,58.789 C114.068,58.652 112.219,60.022 111.397,65.295 C110.297,65.363 108.726,65.5 108.726,65.5 L108.726,86.114 L129.271,86.114 L129.271,65.501 C129.271,65.501 127.697,65.364 126.532,65.295 Z M122.832,65.295 L115.299,65.295 C114.751,63.583 115.367,62.556 117.08,62.419 C118.354663,62.2820125 119.640337,62.2820125 120.915,62.419 C122.625,62.556 123.382,63.515 122.834,65.295 L122.832,65.295 Z" id="Path_530"></path>
            </g>
        </g>
    </g>
</svg>