<svg xmlns="http://www.w3.org/2000/svg" xmlns:xlink="http://www.w3.org/1999/xlink" width="364" height="127" viewBox="0 0 364 127">
  <defs>
    <linearGradient id="linear-gradient" x2="0" y2="1" gradientUnits="objectBoundingBox">
      <stop offset="0" stop-color="#91ffaf"/>
      <stop offset="1" stop-color="#00b6f1"/>
    </linearGradient>
  </defs>
  <g id="Group_747" data-name="Group 747" transform="translate(-921 -1678)">
    <path id="prk2" d="M0,0H284a80,80,0,0,1,80,80v0a40,40,0,0,1-40,40H0a0,0,0,0,1,0,0V0A0,0,0,0,1,0,0Z" transform="translate(921 1678)" fill="url(#linear-gradient)"/>
    <text id="EXPRESS_LINE" data-name="EXPRESS LINE" transform="translate(950.522 1708)" fill="#fff" font-size="37" font-family="OpenSans-CondensedBold, Open Sans Condensed" font-weight="700" letter-spacing="0.02em"><tspan x="116.319" y="40">EXPRESS LINE</tspan></text>
    <g id="Group_392" data-name="Group 392" transform="translate(522.24 1626.75)">
      <path id="Path_531" data-name="Path 531" d="M116.887,17.735l-3.219,2.6-3.9,15.2.616,6.369,2.945,13.765,3.15,17.6h10.957V61.632l1.027-35.474L126.749,17.8ZM122.023,0A6.682,6.682,0,0,0,115.107,6.5a6.636,6.636,0,0,0,6.711,6.711A6.611,6.611,0,0,0,122.023,0ZM68.059,1.162a6.786,6.786,0,0,0-6.917,6.574A6.711,6.711,0,0,0,74.565,7.8,6.713,6.713,0,0,0,68.059,1.162Zm5.2,33.762c0-2.465-1.3-15.066-1.3-17.121H58.951L54.5,34.924l1.3,12.4,1.164,5.41.89,12.6V73H73.333V34.924Z" transform="translate(385.348 86.267)" fill="#fff" opacity="0.502"/>
      <path id="Path_530" data-name="Path 530" d="M83.548,19.175s2.808,1.644,2.739,3.424c-.959,21.3,13.217,63,13.217,63H89.917L78.755,64.1,77.316,85.671H66.907l-.274-22.394,9.382-10.546.959-19.654L72.8,30.817s-5.753,8.971-2.945,14.655c.548,1.1,3.493,8.56-2.945,9.382-2.054-4.725-6.3-14.381-6.3-14.381l.205-2.808,6.163-14.792,2.534-2.123ZM68.414,8.149a8.193,8.193,0,0,0,8.218,7.738,8.012,8.012,0,0,0,7.533-7.944A8.039,8.039,0,0,0,76.221,0,8.24,8.24,0,0,0,68.414,8.149ZM0,85.6H56.155V79.439H10.341ZM12.258,73.276h43.9V67.112H20.339ZM23.215,60.949h32.94V54.785H29.31ZM130.39,85.534V64.989c2.739-.137,4.725,1.507,4.794,4.109.068,4.109.068,8.149,0,12.258C135.115,84.027,133.2,85.671,130.39,85.534Zm-23.832.068c-2.739-.205-4.383-1.644-4.451-4.246-.137-4.04-.137-8.081,0-12.053.068-2.534,1.712-4.04,4.451-4.246Zm19.449-20.887c-.479-4.657-2.328-6.369-6.643-6.506-5.821-.137-7.67,1.233-8.492,6.506-1.1.068-2.671.205-2.671.205V85.534h20.545V64.921S127.172,64.784,126.007,64.715Zm-3.7,0h-7.533c-.548-1.712.068-2.739,1.781-2.876a17.945,17.945,0,0,1,3.835,0C122.1,61.976,122.857,62.935,122.309,64.715Z" transform="translate(402.525 85.58)" fill="#fff"/>
    </g>
  </g>
</svg>
