<?xml version="1.0" encoding="UTF-8"?>
<svg width="268px" height="120px" viewBox="0 0 268 120" version="1.1" xmlns="http://www.w3.org/2000/svg" xmlns:xlink="http://www.w3.org/1999/xlink">
    <!-- Generator: Sketch 49.3 (51167) - http://www.bohemiancoding.com/sketch -->
    <title>1</title>
    <desc>Created with Sketch.</desc>
    <defs>
        <linearGradient x1="0%" y1="0%" x2="0%" y2="100%" id="linearGradient-1">
            <stop stop-color="#91FFAF" offset="0%"></stop>
            <stop stop-color="#00B6F1" offset="100%"></stop>
        </linearGradient>
    </defs>
    <g id="Page-1" stroke="none" stroke-width="1" fill="none" fill-rule="evenodd">
        <g id="1">
            <rect id="prk2" fill="url(#linearGradient-1)" fill-rule="nonzero" x="0" y="0" width="268" height="120"></rect>
            <g id="PRIORITY_LINE" transform="translate(117.000000, 43.000000)" fill="#FFFFFF">
                <path d="M14.6624922,8.71679688 C14.6624922,11.523126 13.9548984,13.6760179 12.5396895,15.1755371 C11.1244806,16.6750563 9.07998603,17.4248047 6.40614453,17.4248047 L5.17762891,17.4248047 L5.17762891,27 L0.263566406,27 L0.263566406,0.586914062 L6.96620312,0.586914062 C12.0970882,0.586914062 14.6624922,3.2968479 14.6624922,8.71679688 Z M5.17762891,13.1611328 L6.11708203,13.1611328 C7.32151514,13.1611328 8.21880434,12.8299187 8.80897656,12.1674805 C9.39914878,11.5050423 9.69423047,10.4210687 9.69423047,8.91552734 C9.69423047,7.53042927 9.42323708,6.50366545 8.88124219,5.83520508 C8.33924729,5.1667447 7.50217884,4.83251953 6.37001172,4.83251953 L5.17762891,4.83251953 L5.17762891,13.1611328 Z M22.9007734,16.7202148 L22.9007734,27 L17.9867109,27 L17.9867109,0.586914062 L24.4183516,0.586914062 C27.1403704,0.586914062 29.1487325,1.23127611 30.443498,2.52001953 C31.7382636,3.80876295 32.3856367,5.77798154 32.3856367,8.42773438 C32.3856367,11.7640141 31.2595087,14.0945572 29.0072187,15.4194336 L34.0838789,27 L28.8265547,27 L24.6532148,16.7202148 L22.9007734,16.7202148 Z M22.9007734,12.4926758 L24.1654219,12.4926758 C25.3216777,12.4926758 26.152724,12.1644727 26.6585859,11.5080566 C27.1644478,10.8516406 27.417375,9.87305338 27.417375,8.57226562 C27.417375,7.22330055 27.1493927,6.26277955 26.6134199,5.69067383 C26.0774472,5.1185681 25.2494119,4.83251953 24.1292891,4.83251953 L22.9007734,4.83251953 L22.9007734,12.4926758 Z M37.3719648,27 L37.3719648,0.586914062 L41.9969648,0.586914062 L41.9969648,27 L37.3719648,27 Z M65.7542891,13.7573242 C65.7542891,18.1294164 64.9352868,21.4897344 63.2972578,23.8383789 C61.6592288,26.1870235 59.3166415,27.3613281 56.2694258,27.3613281 C53.2101657,27.3613281 50.8615564,26.1900345 49.2235273,23.8474121 C47.5854983,21.5047897 46.7664961,18.1294166 46.7664961,13.7211914 C46.7664961,9.34909923 47.5854983,5.99781439 49.2235273,3.66723633 C50.8615564,1.33665827 53.2222098,0.171386719 56.3055586,0.171386719 C59.3527744,0.171386719 61.6893395,1.34268034 63.3153242,3.68530273 C64.9413089,6.02792512 65.7542891,9.38523205 65.7542891,13.7573242 Z M51.788957,13.7573242 C51.788957,16.768407 52.1683478,19.0628176 52.9271406,20.640625 C53.6859335,22.2184324 54.8000174,23.0073242 56.2694258,23.0073242 C59.2323312,23.0073242 60.7137617,19.9240217 60.7137617,13.7573242 C60.7137617,7.59062672 59.2443754,4.50732422 56.3055586,4.50732422 C54.8120615,4.50732422 53.6859335,5.29320503 52.9271406,6.86499023 C52.1683478,8.43677544 51.788957,10.7341971 51.788957,13.7573242 Z M74.5164961,16.7202148 L74.5164961,27 L69.6024336,27 L69.6024336,0.586914062 L76.0340742,0.586914062 C78.756093,0.586914062 80.7644551,1.23127611 82.0592207,2.52001953 C83.3539863,3.80876295 84.0013594,5.77798154 84.0013594,8.42773438 C84.0013594,11.7640141 82.8752313,14.0945572 80.6229414,15.4194336 L85.6996016,27 L80.4422773,27 L76.2689375,16.7202148 L74.5164961,16.7202148 Z M74.5164961,12.4926758 L75.7811445,12.4926758 C76.9374003,12.4926758 77.7684467,12.1644727 78.2743086,11.5080566 C78.7801705,10.8516406 79.0330977,9.87305338 79.0330977,8.57226562 C79.0330977,7.22330055 78.7651153,6.26277955 78.2291426,5.69067383 C77.6931698,5.1185681 76.8651345,4.83251953 75.7450117,4.83251953 L74.5164961,4.83251953 L74.5164961,12.4926758 Z M88.9876875,27 L88.9876875,0.586914062 L93.6126875,0.586914062 L93.6126875,27 L88.9876875,27 Z M107.307023,27 L102.411027,27 L102.411027,4.90478516 L97.3524336,4.90478516 L97.3524336,0.586914062 L112.365617,0.586914062 L112.365617,4.90478516 L107.307023,4.90478516 L107.307023,27 Z M121.543352,11.0112305 L125.066301,0.586914062 L130.215227,0.586914062 L123.946184,16.4130859 L123.946184,27 L119.104387,27 L119.104387,16.6118164 L112.85341,0.586914062 L118.038469,0.586914062 L121.543352,11.0112305 Z" id="PRIORITY"></path>
                <path d="M70.6295664,57 L70.6295664,30.5869141 L75.5436289,30.5869141 L75.5436289,52.7001953 L82.3546641,52.7001953 L82.3546641,57 L70.6295664,57 Z M86.3834727,57 L86.3834727,30.5869141 L91.0084727,30.5869141 L91.0084727,57 L86.3834727,57 Z M115.090992,57 L109.092945,57 L100.92693,37.8676758 L100.692066,37.8676758 C100.993175,39.3250398 101.143727,40.8907794 101.143727,42.5649414 L101.143727,57 L96.5909922,57 L96.5909922,30.5869141 L102.625172,30.5869141 L110.718922,49.5205078 L110.917652,49.5205078 C110.68881,48.2558531 110.574391,46.7503343 110.574391,45.0039062 L110.574391,30.5869141 L115.090992,30.5869141 L115.090992,57 Z M131.657887,57 L119.752125,57 L119.752125,30.5869141 L131.657887,30.5869141 L131.657887,34.8325195 L124.666187,34.8325195 L124.666187,41.1196289 L131.152027,41.1196289 L131.152027,45.3833008 L124.666187,45.3833008 L124.666187,52.7001953 L131.657887,52.7001953 L131.657887,57 Z" id="LINE"></path>
            </g>
            <g id="Group_391" transform="translate(3.475000, 37.065000)" fill="#FFFFFF" fill-rule="nonzero">
                <path d="M96.375,18.288 L93.281,20.788 L89.529,35.403 L90.121,41.525 L92.952,54.757 L95.98,71.676 L106.513,71.676 L106.513,60.486 L107.5,26.386 L105.854,18.355 L96.375,18.288 Z M101.312,1.24 C99.5986433,1.17911025 97.9320509,1.80572727 96.683233,2.98035607 C95.4344152,4.15498488 94.7070282,5.78012707 94.663,7.494 C94.6435104,9.21081215 95.3169071,10.8629974 96.5309548,12.0770452 C97.7450026,13.2910929 99.3971878,13.9644896 101.114,13.945 C104.565918,13.9182762 107.36524,11.1408198 107.419031,7.68921737 C107.472822,4.23761497 104.761409,1.37427697 101.312,1.24 Z M49.438,2.357 C45.8644764,2.28624985 42.8995319,5.10448563 42.789,8.677 C42.8564191,12.1784456 45.7047458,14.9867901 49.2067945,15.0047076 C52.7088433,15.022625 55.5857566,12.2435724 55.689,8.743 C55.6547598,5.28254922 52.8969295,2.46515933 49.438,2.357 Z M54.438,34.812 C54.438,32.442 53.187,20.329 53.187,18.354 L40.682,18.354 L36.403,34.812 L37.654,46.727 L38.773,51.927 L39.629,64.04 L39.629,71.413 L54.503,71.413 L54.503,34.813 L54.438,34.812 Z" id="Path_531" opacity="0.502"></path>
                <path d="M80.839,19.012 C80.839,19.012 83.539,20.592 83.472,22.304 C82.551,42.78 96.178,82.868 96.178,82.868 L86.961,82.868 L76.231,62.197 L74.848,82.934 L64.842,82.934 L64.579,61.407 L73.598,51.27 L74.519,32.38 L70.503,30.208 C70.503,30.208 64.973,38.832 67.672,44.296 C68.199,45.349 71.029,52.525 64.841,53.315 C62.866,48.773 58.785,39.49 58.785,39.49 L58.985,36.79 L64.91,22.57 L67.346,20.529 L80.839,19.012 Z M66.29,8.413 C66.5226602,12.600544 69.9960418,15.8712384 74.19,15.852 C78.2377798,15.6103673 81.404502,12.2708989 81.431,8.216 C81.3813321,4.01949895 77.991501,0.629667931 73.795,0.58 C69.6173898,0.799506871 66.3307132,4.22982501 66.29,8.413 Z M0.525,82.868 L54.507,82.868 L54.507,76.944 L10.466,76.944 L0.525,82.868 Z M12.309,71.018 L54.509,71.018 L54.509,65.094 L20.077,65.094 L12.309,71.018 Z M22.842,59.168 L54.507,59.168 L54.507,53.244 L28.701,53.244 L22.842,59.168 Z M125.867,82.803 L125.867,63.053 C128.5,62.921 130.409,64.501 130.475,67.003 C130.541,70.953 130.541,74.837 130.475,78.787 C130.41,81.354 128.567,82.934 125.867,82.803 Z M102.958,82.869 C100.325,82.669 98.745,81.289 98.679,78.787 C98.547,74.903 98.547,71.019 98.679,67.201 C98.745,64.765 100.325,63.317 102.958,63.119 L102.958,82.869 Z M121.658,62.791 C121.197,58.314 119.42,56.669 115.272,56.537 C109.672,56.405 107.899,57.722 107.109,62.791 C106.056,62.857 104.542,62.991 104.542,62.991 L104.542,82.803 L124.291,82.803 L124.291,62.987 C124.291,62.987 122.773,62.856 121.654,62.79 L121.658,62.791 Z M118.103,62.791 L110.862,62.791 C110.335,61.145 110.928,60.158 112.574,60.026 C113.799471,59.8942878 115.035529,59.8942878 116.261,60.026 C117.902,60.157 118.625,61.08 118.099,62.79 L118.103,62.791 Z" id="Path_530"></path>
            </g>
        </g>
    </g>
</svg>