<?xml version="1.0" encoding="UTF-8"?>
<svg width="45px" height="50px" viewBox="0 0 45 50" version="1.1" xmlns="http://www.w3.org/2000/svg" xmlns:xlink="http://www.w3.org/1999/xlink">
    <!-- Generator: Sketch 49.3 (51167) - http://www.bohemiancoding.com/sketch -->
    <title>adult</title>
    <desc>Created with Sketch.</desc>
    <defs></defs>
    <g id="Design" stroke="none" stroke-width="1" fill="none" fill-rule="evenodd">
        <g id="adult" transform="translate(0.000000, -1.000000)" fill="#595959" fill-rule="nonzero">
            <path d="M28.863,51 L28.863,37.589 L25.047,37.589 C25.387,35.776 25.708,34.076 26.029,32.394 C26.973,27.426 27.899,22.439 28.881,17.494 C29.3734131,14.6496019 31.8313675,12.5655834 34.718,12.545 C37.5721316,12.5484031 40.0032622,14.6196486 40.46,17.437 C40.989,20.119 41.499,22.802 42.009,25.484 C42.727,29.224 43.445,32.945 44.162,36.684 C44.2,36.93 44.2,37.175 44.238,37.553 L40.46,37.553 L40.46,50.983 L36.625,50.983 L36.625,37.627 L32.79,37.627 L32.79,50.981 C31.413,51 30.204,51 28.863,51 Z M34.663,2.908 C33.6258536,2.87904806 32.6230411,3.28097863 31.892991,4.0182288 C31.1629409,4.75547897 30.7708711,5.76218763 30.81,6.799 C30.81,8.92722928 32.5352707,10.6525 34.6635,10.6525 C36.7917293,10.6525 38.517,8.92722928 38.517,6.799 C38.5625049,5.76006921 38.1722243,4.74931033 37.4403104,4.01056143 C36.7083965,3.27181254 35.7013089,2.87215383 34.662,2.908 L34.663,2.908 Z" id="Path_620"></path>
            <path d="M15.47,51 L11.579,51 L11.579,33.773 L7.745,33.773 L7.745,51 L3.91,51 L3.91,27.974 L0.076,27.974 C0.057,27.574 0.019,27.274 0.019,26.974 C0,23.611 0,20.229 0,16.867 C0.019,12.957 2.342,10.634 6.233,10.634 C8.633,10.634 11.012,10.615 13.411,10.634 C14.9756299,10.5720203 16.4955178,11.16376 17.6063442,12.2673782 C18.7171706,13.3709964 19.3187924,14.8869997 19.267,16.452 C19.286,20.003 19.267,23.573 19.267,27.124 C19.267,27.37 19.229,27.615 19.21,27.974 L15.47,27.974 C15.47,35.681 15.47,43.293 15.47,51 Z M5.8,4.872 C5.75656896,5.89567098 6.14175993,6.89112405 6.86292702,7.61893346 C7.58409411,8.34674288 8.57597387,8.74104409 9.6,8.707 C10.6358514,8.7477017 11.6426117,8.35927551 12.3826981,7.63338514 C13.1227845,6.90749477 13.5306343,5.90844533 13.51,4.872 C13.5483053,3.83626555 13.1546306,2.83116284 12.4230836,2.09696116 C11.6915365,1.36275949 10.6878664,0.965446619 9.652,1 C8.61404687,0.956155136 7.60547799,1.3506936 6.87278436,2.08719146 C6.14009072,2.82368932 5.75078055,3.83428785 5.8,4.872 Z" id="Path_621"></path>
        </g>
    </g>
</svg>