<svg xmlns="http://www.w3.org/2000/svg" viewBox="-10673.001 -933.012 40.002 37.012">
  <defs>
    <style>
      .cls-1 {
        fill: #595959;
      }
    </style>
  </defs>
  <g id="Group_425" data-name="Group 425" transform="translate(-11403 -1474)">
    <path id="Path_622" data-name="Path 622" class="cls-1" d="M4.347,21.778H.111a78.093,78.093,0,0,1,.064-8.087,5.812,5.812,0,0,1,5.349-4.9,41.514,41.514,0,0,1,5.648-.064,6.155,6.155,0,0,1,6.14,5.926c.171,2.289.043,4.621.043,7.081H13.012V36.947H4.347ZM8.69,0A3.088,3.088,0,0,0,5.4,3.251,3.077,3.077,0,0,0,8.6,6.5,3.088,3.088,0,0,0,11.9,3.251,3.089,3.089,0,0,0,8.69,0Z" transform="translate(729.967 540.989)"/>
    <path id="Path_623" data-name="Path 623" class="cls-1" d="M110.636,29.694H106.4c0-2.781,1.712-13.585,1.99-16.217a5.812,5.812,0,0,1,5.349-4.9c1.883-.15.15.043,2.011.15a6.155,6.155,0,0,1,6.14,5.926c.171,2.289,1.754,12.537,1.754,15H119.3l-1.134,7.36h-6.418ZM114.979,0a3.088,3.088,0,0,0-3.295,3.252,3.252,3.252,0,1,0,6.5,0A3.089,3.089,0,0,0,114.979,0Z" transform="translate(646.357 540.989)"/>
  </g>
</svg>
