<?xml version="1.0" encoding="UTF-8"?>
<svg width="198px" height="126px" viewBox="0 0 198 126" version="1.1" xmlns="http://www.w3.org/2000/svg" xmlns:xlink="http://www.w3.org/1999/xlink">
    <!-- Generator: Sketch 49.3 (51167) - http://www.bohemiancoding.com/sketch -->
    <title>Group_319</title>
    <desc>Created with Sketch.</desc>
    <defs></defs>
    <g id="Page-1" stroke="none" stroke-width="1" fill="none" fill-rule="evenodd">
        <g id="priority-line" transform="translate(-138.000000, -61.000000)" fill-rule="nonzero">
            <g id="Group_319" transform="translate(138.000000, 61.000000)">
                <path d="M145.6,26.907 L140.9,30.707 L135.2,52.907 L136.1,62.207 L140.4,82.307 L145,108.007 L161,108.007 L161,91.007 L162.5,39.207 L160,27.007 L145.6,26.907 Z M153.1,1.007 C150.497387,0.91458857 147.965835,1.86646521 146.068867,3.65074237 C144.171898,5.43501954 143.066956,7.90360782 143,10.507 C142.970221,13.1151368 143.993152,15.6251449 145.837504,17.4694963 C147.681855,19.3138477 150.191863,20.3367793 152.8,20.307 C158.05782,20.2862202 162.331965,16.0613303 162.413684,10.8041039 C162.495403,5.54687751 158.354634,1.19118587 153.1,1.007 Z M74.3,2.707 C68.871902,2.59974336 64.368242,6.88044981 64.2,12.307 C64.1723858,17.7193905 68.5376095,22.1293858 73.95,22.157 C79.3623905,22.1846142 83.7723858,17.8193905 83.8,12.407 C83.7487961,7.14848175 79.5563106,2.86773339 74.3,2.707 Z M81.9,52.007 C81.9,48.407 80,30.007 80,27.007 L61,27.007 L54.5,52.007 L56.4,70.107 L58.1,78.007 L59.4,96.407 L59.4,107.607 L82,107.607 L82,52.007 L81.9,52.007 Z" id="Path_531" fill="#00B6F1" opacity="0.502"></path>
                <path d="M122,28.007 C122,28.007 126.1,30.407 126,33.007 C124.6,64.107 145.3,125.007 145.3,125.007 L131.3,125.007 L115,93.607 L112.9,125.107 L97.7,125.107 L97.3,92.407 L111,77.007 L112.4,48.307 L106.3,45.007 C106.3,45.007 97.9,58.107 102,66.407 C102.8,68.007 107.1,78.907 97.7,80.107 C94.7,73.207 88.5,59.107 88.5,59.107 L88.8,55.007 L97.8,33.407 L101.5,30.307 L122,28.007 Z M99.9,11.907 C100.1,18.107 105.8,23.507 111.9,23.207 C118.048463,22.8386242 122.85838,17.7663477 122.9,11.607 C122.824949,5.23184278 117.675157,0.082050904 111.3,0.007 C105.1,0.207 99.7,5.807 99.9,11.907 Z M0,125.007 L82,125.007 L82,116.007 L15.1,116.007 L0,125.007 Z M17.9,107.007 L82,107.007 L82,98.007 L29.7,98.007 L17.9,107.007 Z M33.9,89.007 L82,89.007 L82,80.007 L42.8,80.007 L33.9,89.007 Z M190.4,124.907 L190.4,94.907 C194.4,94.707 197.3,97.107 197.4,100.907 C197.5,106.907 197.5,112.807 197.4,118.807 C197.3,122.707 194.5,125.107 190.4,124.907 Z M155.6,125.007 C151.6,124.707 149.2,122.607 149.1,118.807 C148.9,112.907 148.9,107.007 149.1,101.207 C149.2,97.507 151.6,95.307 155.6,95.007 L155.6,125.007 Z M184,94.507 C183.3,87.707 180.6,85.207 174.3,85.007 C165.8,84.807 163.1,86.807 161.9,94.507 C160.3,94.607 158,94.807 158,94.807 L158,124.907 L188,124.907 L188,94.807 C188,94.807 185.7,94.607 184,94.507 Z M178.6,94.507 L167.6,94.507 C166.8,92.007 167.7,90.507 170.2,90.307 C172.061306,90.106936 173.938694,90.106936 175.8,90.307 C178.3,90.507 179.4,91.907 178.6,94.507 Z" id="Path_530" fill="#8DC23A"></path>
            </g>
        </g>
    </g>
</svg>